<svg xmlns="http://www.w3.org/2000/svg" xmlns:xlink="http://www.w3.org/1999/xlink" viewBox="0 0 1727.52 967.39"><defs>

    <style>
        .cls-1{isolation:isolate;}
        .cls-2{fill:#fff;stroke:lime;}
        .cls-14,.cls-15,.cls-16,.cls-17,.cls-18,.cls-2,.cls-3,.cls-4{stroke-miterlimit:10;}
        .cls-15,.cls-16,.cls-17,.cls-18,.cls-2,.cls-3,.cls-4{stroke-width:5px;}
        .cls-15,.cls-16,.cls-18,.cls-2,.cls-3,.cls-4,.cls-5,.cls-7,.cls-8,.cls-9{opacity:0.4;}
        .cls-10,.cls-14,.cls-15,.cls-16,.cls-17,.cls-18,.cls-3,.cls-4{fill:none;}
        .cls-3{stroke:#0071bc;}
        .cls-4{stroke:#c1272d;}
        .cls-5{font-size:120px;fill:#fbb03b;font-family:BickhamScriptPro-Regular, Bickham Script Pro;}.cls-6{letter-spacing:0.05em;}
        .cls-7{fill:#ed1e79;}
        .cls-8{fill:#1b1464;}
        .cls-11{opacity:0.15;fill:url(#radial-gradient);}
        .cls-11,.cls-12,.cls-13,
        .cls-14{mix-blend-mode:screen;}
        .cls-12{opacity:0.5;fill:url(#radial-gradient-2);}
        .cls-13{fill:url(#radial-gradient-3);}
        .cls-14{stroke:#fff;stroke-width:2px;opacity:0.03;}
        .cls-15{stroke:#fbb03b;}.cls-16{stroke:#006837;}
        .cls-17{stroke:#ff0;}.cls-18{stroke:#534741;}

    </style>


    <radialGradient id="radial-gradient" cx="100.15" cy="434.97" r="37.69" gradientUnits="userSpaceOnUse"><stop offset="0" stop-color="#230000"/><stop offset="0.73" stop-color="#93432a"/><stop offset="1" stop-color="#230000"/></radialGradient><radialGradient id="radial-gradient-2" cx="100.15" cy="434.97" r="18.84" gradientUnits="userSpaceOnUse"><stop offset="0.15" stop-color="#fff"/><stop offset="0.21" stop-color="#e2d1d2"/><stop offset="0.29" stop-color="#bf9a9c"/><stop offset="0.36" stop-color="#a67276"/><stop offset="0.42" stop-color="#975a5e"/><stop offset="0.45" stop-color="#915155"/><stop offset="0.56" stop-color="#6c3638"/><stop offset="0.68" stop-color="#44191a"/><stop offset="0.79" stop-color="#2c0707"/><stop offset="0.85" stop-color="#230000"/><stop offset="0.86" stop-color="#270201"/><stop offset="0.86" stop-color="#340805"/><stop offset="0.87" stop-color="#48120b"/><stop offset="0.88" stop-color="#652114"/><stop offset="0.89" stop-color="#8b331f"/><stop offset="0.9" stop-color="#b8492d"/><stop offset="0.9" stop-color="#d65836"/><stop offset="0.9" stop-color="#c95232"/><stop offset="0.91" stop-color="#9d3c25"/><stop offset="0.93" stop-color="#782a1a"/><stop offset="0.94" stop-color="#591b10"/><stop offset="0.95" stop-color="#410f09"/><stop offset="0.97" stop-color="#300604"/><stop offset="0.98" stop-color="#260201"/><stop offset="1" stop-color="#230000"/></radialGradient><radialGradient id="radial-gradient-3" cx="100.15" cy="434.97" r="15.7" gradientUnits="userSpaceOnUse"><stop offset="0.15" stop-color="#fff"/><stop offset="0.28" stop-color="#c2c2c2"/><stop offset="0.43" stop-color="#888"/><stop offset="0.56" stop-color="#575757"/><stop offset="0.69" stop-color="#313131"/><stop offset="0.81" stop-color="#161616"/><stop offset="0.92" stop-color="#060606"/><stop offset="1"/></radialGradient></defs><title>Layer 1</title><g class="cls-1"><g id="Layer_2" data-name="Layer 2"><g id="Layer_1-2" data-name="Layer 1"><path class="cls-2" d="M10.65,96.71c2.07-36.66,20.84-68.88,48.39-83A66.16,66.16,0,0,1,87.92,6.23c13.72-.31,26.74,4.67,53.23,23.7,40.09,28.79,36.94,37,54.5,42.78,28.92,9.48,72.13-1.51,79-27,5.28-19.58-13-39.78-17-44"/><line class="cls-3" x1="0.65" y1="885.71" x2="218.65" y2="826.71"/><line class="cls-4" x1="1441.65" y1="146.71" x2="1726.65" y2="41.71"/><text class="cls-5" transform="translate(403.86 325.09)">m<tspan class="cls-6" x="56.16" y="0">y</tspan><tspan x="104.28" y="0" xml:space="preserve"> web</tspan></text><text></text><text></text><polygon class="cls-7" points="1097.68 84.35 1051.52 157.04 965.49 153.4 925.62 77.08 971.79 4.39 1057.82 8.03 1097.68 84.35"/><path class="cls-8" d="M781.15,596.21c0-105.57,74.7-191,167-191"/><g class="cls-9"><line class="cls-10" x1="100.15" y1="434.97" x2="110.03" y2="418.92"/><circle class="cls-10" cx="100.15" cy="434.97" r="15.7"/>
    <circle class="cls-10" cx="100.15" cy="434.97" r="18.84"/><polyline class="cls-10" points="100.15 434.97 123.67 388.31 100.15 434.97 76.63 481.62 100.15 434.97 146.81 458.49 100.15 434.97 53.5 411.45 100.15 434.97 100.44 431.07 100.15 434.97 99.86 438.86 100.15 434.97 104.05 435.26 100.15 434.97 96.26 434.68 100.15 434.97 121.35 351.61 100.15 434.97 78.95 518.33 100.15 434.97 183.51 456.17 100.15 434.97 16.8 413.77 100.15 434.97 105.5 426.36 100.15 434.97 94.81 443.57 100.15 434.97 108.76 440.31 100.15 434.97 91.55 429.62 100.15 434.97 100.64 428.97 100.15 434.97 99.66 440.97 100.15 434.97 106.15 435.46 100.15 434.97 94.15 434.48 100.15 434.97 76.12 344.44 100.15 434.97 124.19 525.5 100.15 434.97 190.68 410.93 100.15 434.97 9.62 459 100.15 434.97 135.11 393.67 100.15 434.97 65.2 476.27 100.15 434.97 141.45 469.92 100.15 434.97 58.85 400.01 100.15 434.97 97.61 370.28 100.15 434.97 102.69 499.65 100.15 434.97 164.84 432.43 100.15 434.97 35.47 437.51 100.15 434.97 133.9 400.96 100.15 434.97 66.41 468.98 100.15 434.97 134.16 468.71 100.15 434.97 66.14 401.22 100.15 434.97 108.37 416.04 100.15 434.97 91.94 453.89 100.15 434.97 119.08 443.18 100.15 434.97 81.23 426.75 100.15 434.97 99.12 358.55 100.15 434.97 101.19 511.38 100.15 434.97 176.57 433.93 100.15 434.97 23.74 436 100.15 434.97 103.87 425.67 100.15 434.97 96.44 444.27 100.15 434.97 109.45 438.68 100.15 434.97 90.85 431.25 100.15 434.97 118.23 423.67 100.15 434.97 82.08 446.27 100.15 434.97 111.45 453.04 100.15 434.97 88.85 416.89 100.15 434.97 165.69 392.56 100.15 434.97 34.61 477.37 100.15 434.97 142.56 500.51 100.15 434.97 57.75 369.43 100.15 434.97 127.25 372.68 100.15 434.97 73.06 497.26 100.15 434.97 162.44 462.06 100.15 434.97 37.86 407.87"/><circle class="cls-11" cx="100.15" cy="434.97" r="37.69"/><circle class="cls-12" cx="100.15" cy="434.97" r="18.84"/><circle class="cls-13" cx="100.15" cy="434.97" r="15.7"/><polyline class="cls-14" points="100.15 434.97 123.67 388.31 100.15 434.97 76.63 481.62 100.15 434.97 146.81 458.49 100.15 434.97 53.5 411.45 100.15 434.97 100.44 431.07 100.15 434.97 99.86 438.86 100.15 434.97 104.05 435.26 100.15 434.97 96.26 434.68 100.15 434.97 121.35 351.61 100.15 434.97 78.95 518.33 100.15 434.97 183.51 456.17 100.15 434.97 16.8 413.77 100.15 434.97 105.5 426.36 100.15 434.97 94.81 443.57 100.15 434.97 108.76 440.31 100.15 434.97 91.55 429.62 100.15 434.97 100.64 428.97 100.15 434.97 99.66 440.97 100.15 434.97 106.15 435.46 100.15 434.97 94.15 434.48 100.15 434.97 76.12 344.44 100.15 434.97 124.19 525.5 100.15 434.97 190.68 410.93 100.15 434.97 9.62 459 100.15 434.97 135.11 393.67 100.15 434.97 65.2 476.27 100.15 434.97 141.45 469.92 100.15 434.97 58.85 400.01 100.15 434.97 97.61 370.28 100.15 434.97 102.69 499.65 100.15 434.97 164.84 432.43 100.15 434.97 35.47 437.51 100.15 434.97 133.9 400.96 100.15 434.97 66.41 468.98 100.15 434.97 134.16 468.71 100.15 434.97 66.14 401.22 100.15 434.97 108.37 416.04 100.15 434.97 91.94 453.89 100.15 434.97 119.08 443.18 100.15 434.97 81.23 426.75 100.15 434.97 99.12 358.55 100.15 434.97 101.19 511.38 100.15 434.97 176.57 433.93 100.15 434.97 23.74 436 100.15 434.97 103.87 425.67 100.15 434.97 96.44 444.27 100.15 434.97 109.45 438.68 100.15 434.97 90.85 431.25 100.15 434.97 118.23 423.67 100.15 434.97 82.08 446.27 100.15 434.97 111.45 453.04 100.15 434.97 88.85 416.89 100.15 434.97 165.69 392.56 100.15 434.97 34.61 477.37 100.15 434.97 142.56 500.51 100.15 434.97 57.75 369.43 100.15 434.97 127.25 372.68 100.15 434.97 73.06 497.26 100.15 434.97 162.44 462.06 100.15 434.97 37.86 407.87"/></g>

    <rect class="cls-15" x="1480.15" y="427.21" width="198" height="169"/>

    <path class="cls-16" d="M1332.65,816.71a96.39,96.39,0,0,1-135,19,77.13,77.13,0,0,1-15.2-108,61.7,61.7,0,0,1,86.4-12.16,49.35,49.35,0,0,1,9.73,69.12,39.48,39.48,0,0,1-55.29,7.79,31.59,31.59,0,0,1-6.23-44.24,25.27,25.27,0,0,1,35.39-5,20.21,20.21,0,0,1,4,28.31,16.17,16.17,0,0,1-22.65,3.19,13,13,0,0,1-2.55-18.12"/><g class="cls-9"><ellipse class="cls-17" cx="553.65" cy="759.71" rx="72" ry="80"/><ellipse class="cls-17" cx="553.65" cy="759.71" rx="60" ry="66.67"/><ellipse class="cls-17" cx="553.65" cy="759.71" rx="48" ry="53.33"/><ellipse class="cls-17" cx="553.65" cy="759.71" rx="36" ry="40"/><ellipse class="cls-17" cx="553.65" cy="759.71" rx="24" ry="26.67"/><ellipse class="cls-17" cx="553.65" cy="759.71" rx="12" ry="13.33"/><line class="cls-17" x1="553.65" y1="759.71" x2="553.65" y2="839.71"/><line class="cls-17" x1="553.65" y1="759.71" x2="622.13" y2="784.44"/><line class="cls-17" x1="553.65" y1="759.71" x2="595.97" y2="694.99"/><line class="cls-17" x1="553.65" y1="759.71" x2="511.33" y2="694.99"/><line class="cls-17" x1="553.65" y1="759.71" x2="485.18" y2="784.44"/></g><line class="cls-18" x1="1561.65" y1="786.71" x2="1723.65" y2="965.71"/></g></g></g></svg>